<?xml version="1.0" standalone="no"?>
<!DOCTYPE svg PUBLIC "-//W3C//DTD SVG 1.1//EN" "http://www.w3.org/Graphics/SVG/1.1/DTD/svg11.dtd" >
<!--
2015-12-22: Created with FontForge (http://fontforge.org)
-->
<svg xmlns="http://www.w3.org/2000/svg" xmlns:xlink="http://www.w3.org/1999/xlink" version="1.1">
<metadata>
Created by FontForge 20150715 at Tue Dec 22 23:17:52 2015
 By Julien Benchetrit
Copyright (c) 2015, Julien Benchetrit
</metadata>
<defs>
<font id="piropay" horiz-adv-x="512" >
  <font-face 
    font-family="piropay"
    font-weight="400"
    font-stretch="normal"
    units-per-em="512"
    panose-1="2 0 5 3 0 0 0 0 0 0"
    ascent="448"
    descent="-64"
    bbox="-0.0944956 -65 515 592"
    underline-thickness="25.6"
    underline-position="-51.2"
    unicode-range="U+0020-F120"
  />
    <missing-glyph />
    <glyph glyph-name="space" unicode=" " horiz-adv-x="200" 
 />
    <glyph glyph-name="uniF117" unicode="&#xf117;" horiz-adv-x="314" 
d="M0 386l60 60l254 -254l-254 -253l-60 60l194 193z" />
    <glyph glyph-name="uniF10C" unicode="&#xf10c;" horiz-adv-x="499" 
d="M87 244c12 -12 39 -40 51 -52c5 -5 5 -13 0 -18l-51 -51c-5 -5 -12 -6 -17 -1s-6 13 -1 18c4 4 23 24 27 28c1 1 2 1 3 2h-4h-81c-7 0 -11 3 -13 9c-2 8 3 16 11 16c16 0 68 1 84 1h3l-1 1c-4 4 -24 25 -28 29s-5 8 -3 13s5 7 10 8c4 0 7 0 10 -3zM457 301
c23 0 42 -19 42 -42v-135c0 -23 -19 -41 -42 -41h-250c-23 0 -41 18 -41 41v135c0 23 18 42 41 42h250zM187 246v-109l72 55zM457 103c11 0 21 10 21 21l-82 61l-45 -34c-5 -4 -12 -6 -19 -6s-13 2 -19 6l-45 34l-81 -61c0 -11 9 -21 20 -21h250zM478 137v109l-73 -54z
M345 160l133 99c0 11 -10 21 -21 21h-250c-11 0 -20 -10 -20 -21l81 -61l9 -6l43 -32c4 -3 7 -5 12 -5c4 0 9 2 13 5z" />
    <glyph glyph-name="uniF104" unicode="&#xf104;" 
d="M255 448c141 0 257 -114 257 -255c1 -141 -114 -257 -255 -257c-141 -1 -256 114 -257 255s114 257 255 257zM257 -33c124 0 224 101 224 226c-1 124 -101 224 -226 224c-124 -1 -225 -102 -224 -226s101 -224 226 -224zM361 264c8 3 8 3 5 1c-1 -2 -6 -9 -11 -14
c-9 -9 -9 -10 -9 -18c0 -12 -7 -37 -12 -51c-10 -26 -32 -54 -54 -67c-31 -19 -71 -24 -106 -13c-12 4 -32 13 -32 15c0 0 6 1 13 1c15 1 31 6 44 14l10 5l-11 3c-14 5 -27 17 -30 28c-1 4 -1 4 8 4h9l-8 4c-9 4 -19 13 -23 21c-3 6 -7 22 -6 23c0 0 3 -1 7 -2
c11 -4 13 -3 7 4c-12 13 -17 33 -11 51l4 8l11 -11c23 -23 48 -36 78 -40l8 -1l-1 8c-1 22 11 41 31 49c7 3 21 3 29 1c4 -1 10 -4 14 -7l9 -6l9 3c5 2 11 4 14 6s5 3 5 2c0 -3 -6 -13 -11 -18c-6 -7 -3 -8 10 -3z" />
    <glyph glyph-name="uniF102" unicode="&#xf102;" horiz-adv-x="513" 
d="M171 315c16 0 27 -12 27 -26s-12 -25 -28 -25v0c-17 0 -27 11 -27 25s12 26 28 26zM143 94v148h49v-148h-49zM314 242c32 0 55 -22 56 -67v-85h-48v80c0 21 -8 34 -25 34c-13 0 -21 -9 -24 -18c-2 -3 -2 -9 -2 -13v-82h-49s1 134 0 148h49v-21c6 10 17 24 43 24zM256 448
c141 0 257 -114 257 -256s-115 -257 -257 -257s-256 115 -256 257s114 256 256 256zM256 -34c125 0 226 101 226 226s-101 225 -226 225s-225 -100 -225 -225s100 -226 225 -226z" />
    <glyph glyph-name="uniF105" unicode="&#xf105;" horiz-adv-x="515" 
d="M61 33l-61 61l258 257l257 -257l-61 -61l-196 197z" />
    <glyph glyph-name="uniF115" unicode="&#xf115;" horiz-adv-x="501" 
d="M430 366c96 -98 95 -256 -3 -352s-260 -96 -356 2s-94 258 4 354s259 94 355 -4zM312 80c13 -13 33 -18 50 -2c16 15 11 37 -2 50l-62 63l65 64c8 7 25 24 1 48c-18 18 -37 12 -50 -1l-64 -62l-65 66c-13 13 -31 15 -47 -1c-18 -17 -15 -34 -2 -47l66 -66l-67 -66
c-13 -13 -16 -29 3 -48c19 -17 32 -14 45 -1l67 66z" />
    <glyph glyph-name="uniF11B" unicode="&#xf11b;" horiz-adv-x="503" 
d="M252 443c139 0 251 -113 251 -252s-112 -252 -251 -252s-252 113 -252 252s113 252 252 252zM252 -26c120 0 217 97 217 217s-97 217 -217 217s-217 -97 -217 -217s97 -217 217 -217zM318 323v0v0v0zM315 111c3 0 3 -6 8 -8v-2h-2c-2 -6 -3 -10 -6 -14c-3 -3 -2 -9 -8 -9
c-2 0 -3 3 -3 4v1c-1 0 -2 2 -2 3l2 2l1 4c0 1 -1 3 -1 4c0 5 3 5 6 6c2 2 4 5 5 6v3zM384 163c0 3 1 4 -1 7c2 -2 3 -2 3 -5s0 -5 -1 -5s-1 2 -1 3zM407 159v0c0 1 0 3 -1 3h-1v0v0v0v-3v0v-1c0 -1 0 -1 1 -2v-3v0v0c0 1 -1 4 1 6v0v0zM406 149v0v0v-2c2 0 2 2 0 2v0z
M406 153c0 0 2 -1 0 -1v1v0v0zM317 312v1l-2 2h2v0h3c0 1 -2 1 -2 1h3v0c-1 0 0 0 0 0h3h6h1c0 -1 2 -1 2 -1c1 -1 3 -2 4 -2c2 0 2 -1 3 -1h-1c-3 0 -5 1 -6 1h-2h-2c-3 0 -8 0 -8 -1c0 -2 4 -2 5 -3v0c-2 0 -5 1 -6 1v0s-2 1 -3 2c0 0 1 0 0 0zM326 309v0v0zM356 297
c-1 1 -2 1 -2 3v0l3 -3h-1zM359 297c31 -31 51 -71 46 -132v-1v0v1c0 1 1 1 0 1v-1v-1v-5v-2v0v-3v0v-6v1v4c0 0 1 3 0 3v0v0v0v3v0v0v3v9v3v0v1c0 -2 0 -3 -1 -3v2v1v1c-1 2 -2 2 -2 3c0 2 -1 2 -1 3v3l-1 1c2 -3 -1 -3 -2 -3s-1 2 -1 2c0 -1 -1 -2 -1 -2v-2l-3 -3
c-2 -1 -2 -4 -3 -5l-1 -1c-2 0 -3 0 -3 -1v-5c-1 -1 -2 -3 -2 -4v-1v0v0c-1 0 -1 -3 -1 -3c-1 -1 -1 0 -1 -1c-1 0 -2 -2 -2 -2c-1 0 -1 2 -1 2v1c0 3 -1 5 -1 6c0 2 -2 3 -2 3v3c-1 2 -1 2 -1 3c0 2 -1 4 -1 5s-2 4 -2 5v1v0v3c0 2 -1 2 -1 3v1v0c-2 -2 -2 -3 -3 -3
c-3 0 -3 4 -4 5h1c1 0 1 1 1 1h-1c-1 0 -3 2 -4 3c0 0 -1 3 -2 3h-2h-3h-2v0h-1v0c-1 0 -4 1 -7 1l-3 1c-2 1 -2 5 -3 5s-1 -2 -1 -2h-5l-3 3c0 1 -2 1 -3 2v1c-2 1 -2 4 -5 4c-1 0 -2 -2 -2 -3v-1c2 -3 5 -7 6 -7v-2c1 0 0 2 1 2v-2v-3c1 0 4 -1 5 -1c6 0 5 3 8 6v-3
c2 -3 3 -3 6 -4l2 -2v0c0 -1 1 -1 1 -1c0 -1 -3 -1 -3 -4c-2 0 -3 0 -3 -1c0 -2 0 -3 -1 -3c-2 0 -2 -3 -3 -3c-2 0 -3 -2 -3 -3c-3 0 -7 -2 -7 -3v-2c-2 -2 -5 -2 -6 -2c-2 0 -5 -3 -6 -3h-3c-1 -2 -3 -3 -4 -3v0l-3 1v1c-1 2 -1 5 -1 6c-1 0 0 3 0 3c0 3 -2 3 -3 4
c0 0 -3 3 -3 6c-3 0 -5 3 -5 6c0 1 -1 3 -1 4l-1 2h-2v3c0 2 -1 3 -1 3c-2 1 -2 3 -3 4c0 2 -1 3 -1 3v3c0 -1 -2 -4 -2 -5c-3 0 -4 5 -5 6v-1l8 -16c0 -1 4 -3 5 -4v-5c0 -3 3 -6 4 -7c2 -2 2 -5 3 -6c1 -2 3 -2 4 -3c2 0 3 -4 6 -4c0 -2 1 -2 0 -3c1 -1 3 -4 4 -4
c2 0 2 1 3 1h4c4 0 8 2 11 3v-1c0 -6 -5 -13 -8 -16s-4 -6 -7 -9s-4 -5 -7 -6c0 0 0 -3 -1 -4c-2 -3 -5 -3 -6 -6c0 -3 -3 -3 -3 -6s1 -4 1 -7c0 -4 3 -6 3 -7v-1v-2v-6v-1c0 -7 -12 -6 -13 -12c-2 0 -3 -2 -3 -3s1 -1 1 -4c0 -2 0 -5 -1 -6s-3 -1 -4 -1c-3 -2 -2 -2 -3 -3
c1 0 1 -1 1 -1c0 -1 -2 -4 -3 -5c-1 -2 -3 -2 -4 -3c-3 -3 -3 -4 -7 -5c-1 -1 -4 -1 -4 -2h-3h-3c-5 0 -6 -1 -9 -1c-2 0 -3 0 -3 1h-1c0 2 -1 3 -2 3v1c-1 2 -4 6 -4 6c-3 3 -6 5 -6 12v1c0 2 0 2 -1 3c-3 3 -6 6 -6 12s4 9 4 13c0 1 -1 3 -1 4c-2 4 -2 7 -3 8
c0 3 0 4 -1 5c-3 3 -9 8 -9 12l1 3v1c0 1 1 4 2 5c-2 3 -3 4 -6 4h-6c-3 0 0 6 -4 6s-11 -2 -14 -3c-2 0 -1 -1 -2 -1c-2 0 -5 1 -6 1c-3 0 -6 -1 -9 -1c-2 0 -3 1 -3 1c-3 6 -8 6 -9 9c-1 2 -3 5 -4 6l-4 4c-1 1 -2 1 -2 1v0v3c0 1 -1 3 -1 4c2 1 3 5 3 8c0 4 -1 7 -1 10
c0 1 2 3 2 4c1 4 4 7 5 10c2 3 5 3 6 4c0 1 2 4 3 5c0 2 0 5 1 6c3 3 4 2 7 5c0 1 1 2 1 2c0 1 1 3 2 4c2 -1 3 -1 6 -1c1 0 3 1 4 1c3 1 9 4 13 4c2 1 3 0 3 0c1 0 3 2 4 2h3c3 0 3 1 4 1c2 0 2 -1 3 -1h2c0 -2 -2 -2 -2 -3l2 -1c0 -2 -1 -2 -1 -3c0 -3 3 -4 4 -4h3
c6 0 10 -6 17 -6l2 1v1c0 3 3 4 6 5v0h1l1 -2c0 -1 3 -1 4 -1c5 -2 9 -3 12 -3s1 1 4 1c2 0 5 -1 6 -1h3v-1v1c0 1 2 1 2 1c0 1 1 4 1 5c2 1 3 3 3 4v4v2v1c0 -1 -1 -1 -1 -1c0 1 -2 1 -2 1c-1 0 -1 -1 -4 -1c-2 0 -5 3 -6 3c-2 0 -2 -2 -3 -2s-3 2 -4 2h-1h1
c-2 0 -4 1 -3 2c0 2 -2 3 -3 3c0 0 1 1 1 2v1h-1c0 1 9 1 10 1c-1 1 -1 2 -1 2h3h3s3 1 4 1h6c3 0 1 -1 4 -1c0 -1 3 -2 4 -2h6s3 2 4 2v0v0c0 6 -10 6 -13 10c6 2 3 3 3 3l2 1c-2 -2 -9 -3 -9 -3c0 -1 1 -1 1 -1h3c-1 0 -6 -1 -7 -1s-3 1 -4 2l1 2c-3 0 -6 1 -6 1
c-1 0 -3 -3 -4 -3v-1l-1 -1v-2v-1c-2 0 -3 -2 -3 -3c0 -2 3 -3 3 -3h-2h-3h-3c-2 1 -2 1 -3 1c-2 0 -2 -1 -3 -1v-1c-2 0 -1 1 -2 1s-2 -1 -2 -1l1 -2v-2l3 -1v0l-1 -1v0c-2 0 -3 1 -3 1v0v-3s-1 -1 0 -1h-1c-3 0 -5 2 -5 3l1 2h-1v1s0 1 -1 1v3v2c0 2 -2 3 -3 3
c-2 0 -3 0 -3 1h-1c-1 0 -5 3 -5 4h-3s-1 1 -1 1c-2 0 -3 -1 -3 -1v0v-1c0 -1 0 -2 1 -2c2 0 3 -1 3 -1c0 -2 2 -3 2 -3h4v0c0 -1 3 -1 3 -1c1 0 4 -2 4 -3c-2 0 -2 1 -3 1s-1 -1 -1 -1c0 -1 1 0 1 -1l-1 -2c-2 0 -2 -1 -3 -1h-1c1 0 1 1 1 1l-1 2l-5 3h1c-5 0 -5 0 -6 1
c-2 1 -3 1 -3 1c0 3 -3 4 -6 4c-2 0 -2 -1 -3 -1c-3 0 -5 -1 -6 -1h-3c-2 0 -3 -1 -3 -2v-1c0 -2 -3 -3 -4 -3s-4 -3 -4 -4s1 -1 1 -1c-1 -1 -3 -4 -4 -5c-2 -2 -2 -3 -3 -3v0h-3c-3 0 -5 -1 -6 -1c-2 0 -2 3 -3 3c-2 0 -2 -1 -3 -1v0v4c-1 0 -1 1 -1 1l1 2c0 1 2 3 2 4
c1 2 0 3 0 3l2 1h2h4h1h5h3h3c0 2 1 2 1 3v1v0v2v1c-2 0 -3 2 -3 3h-1c-1 0 -5 0 -5 1v0s2 2 3 2h3h2v0v2v0h1h3l1 1c3 0 3 0 3 1h1l5 2v1h1c1 0 6 3 7 3h2h1h1l2 1v1c0 2 -2 2 -2 3c0 2 3 2 6 3v0v-1h1v0h-1s-1 0 -1 -1s1 -2 1 -2v0v2l3 -1c2 0 5 1 6 1v0h1h2h4
c0 0 2 2 3 2h3v0h3c0 2 3 1 3 2s1 5 2 5c3 0 4 -2 5 -2s2 1 1 2h-4c-1 2 5 3 6 3c3 -1 6 -2 7 -2c2 0 2 2 3 2c-2 1 -5 1 -6 1c-1 -1 -3 -1 -4 -1h-5h-1c-3 0 -4 0 -4 1s1 1 1 1c-1 0 -1 2 -1 2v2c5 0 3 1 6 1c0 2 4 3 4 3c-2 1 -3 2 -6 2s-6 -1 -6 -2v-1c0 -2 -5 -3 -6 -3
s-3 -1 -4 -1s0 -2 -1 -2c0 -1 1 -1 1 -1v0c1 0 1 0 1 -1c0 0 -3 -2 -4 -2s-1 -2 -1 -3h1s-3 0 -3 -1h-3c-1 -2 -1 -3 -4 -3c-1 0 -1 3 -1 3v0c-1 0 -2 0 -2 1l-1 2v0l-1 1c-2 -2 -5 -3 -9 -3c-1 0 -4 2 -4 2c0 1 1 1 1 1v0h-3l1 1c-1 0 -1 2 -1 3l1 1c1 0 4 2 5 2s1 1 4 1
h-1c5 2 5 2 8 3c1 0 2 1 2 1l1 2c1 0 3 1 4 1c1 2 5 3 5 3c-3 -1 -7 -1 -8 -1h3v0h2v0h1v0h1h2h-2h2h3h-2h4v0c0 1 2 1 3 1v0c1 1 4 1 5 1h-2h2h1h6c0 -1 -1 -1 -1 -1c1 0 3 1 4 1v0h3h1h1h3h-4h1h3h5c3 0 6 0 10 -1c15 -3 4 -5 0 -4c-3 1 -5 1 -9 1c0 -2 2 -2 3 -3v-1
c2 -1 2 -2 3 -2h4c-2 1 -2 2 -3 2l-1 1c5 -1 9 -1 9 -1c1 0 -1 1 0 1c2 0 4 1 5 1s2 -1 2 -1h3l-2 1c1 1 0 2 0 2c1 2 8 -1 8 -2h-5s2 -1 3 -1c4 0 4 1 5 1h4h9h-2c3 -1 7 -1 10 -1c0 0 -1 -1 3 -1h6c2 -2 3 -2 6 -3c2 0 2 -1 3 -1s1 0 0 1c-2 0 -2 1 -3 1v2l-1 1h1
c0 0 0 1 1 1h2v0v0c0 -1 1 -1 1 -1v0v0l3 -3v0s1 0 1 -1c1 -2 2 -2 2 -3l1 -2v0h-1v-1h3l1 1c-1 -3 -1 -1 -1 2c0 0 0 -2 1 -2zM327 252l-1 -1c1 0 3 -1 3 -3v-2v-1v-1h-5s-3 0 -4 1l-1 1c-1 0 -1 2 -3 2v1s-2 0 -2 1h2c1 1 1 3 3 3c-3 1 -6 7 -6 8c0 0 -2 0 -2 2l2 3h3
c3 0 3 1 6 0c4 0 6 -3 7 -4h-4s-6 -1 -6 -1c0 -1 1 -2 1 -2c1 -3 4 -2 4 -5h3c0 -1 2 -1 2 -3c0 1 -2 1 -2 1zM307 326v0v0v0zM299 328h2h-2c1 0 2 -1 2 -2c0 1 -2 2 -2 2c1 -1 1 -2 3 -2h1h2h3v0h1s1 -1 1 0h-1h-3c-4 1 -4 2 -7 2c-1 0 -4 1 -4 0h1h3zM318 323v0
c1 0 1 -1 1 0h2h1h-1h-3zM320 323c0 0 -2 1 -2 2h-3h-1l3 -2h3zM317 325v0v0v0zM222 328v0c-1 0 -1 2 -3 0c2 0 3 1 3 0c2 2 3 2 5 4h-1h1v0h1c2 1 2 0 3 0l-1 1h1h3v0h1h2h1c2 0 5 -1 6 -1h-1v0v0h3c0 -1 2 -2 3 -2c-3 -1 -5 -1 -6 -1v0h-4h2h-2h2h-2c-3 0 -3 -1 -4 -1h-1
c-2 0 -2 -2 -3 -2c-2 0 -6 1 -6 2h3h3h-3c-2 0 -3 -1 -3 0h3c1 1 3 1 4 1h-1h-2v0c-2 -1 -2 -1 -3 -1h-3v0h-1zM240 331h4h-1h-3c1 0 1 0 0 0h6h3c3 0 5 0 8 1h-3h-3h-2v0h-2h-2h-2c-2 0 -2 -1 -3 -1v0v0c-2 0 -2 0 0 0h-3h-2h2c0 -1 1 0 3 0zM219 328v0v0v0v0c-1 0 1 0 3 0
h-3zM165 274c-1 0 -1 2 -6 0c0 2 3 2 3 3c-1 0 -1 1 -1 1h1c2 0 3 1 3 1v0s2 2 3 2h1c3 0 3 -1 3 -2s-1 -1 -1 -1v-1s1 -2 0 -2h-1c-2 0 -3 -1 -3 -1h-2zM174 290c0 0 -1 0 -1 -1v0c1 0 1 1 1 1zM175 287c-1 0 -3 0 -1 0c0 1 0 1 1 0c-1 1 0 1 0 0v0v0c0 1 0 2 2 0v1
c0 1 2 2 2 2h3h1c-2 0 -3 -1 -3 -2v0h4c0 -2 -3 -2 -3 -3h-1h1c1 0 1 -1 2 -1c2 0 3 0 3 -1s1 -2 1 -2v0v0h1v0h2c1 0 1 -1 1 -1c0 -2 -2 -2 -3 -3h1v0c-2 -1 -2 -1 -3 -1h-3c0 0 -3 -2 -4 -2h-1c-1 0 -1 -1 -1 -1h-2h-1v0v0l3 3c2 1 3 0 3 1v0c0 -1 -2 -1 -2 -1h-3h-1v0
s3 0 3 1v2c1 0 4 1 4 1v1h-2v2h-1h-1h-2l2 2v1h-2v-1v0v1v0v1c0 -2 -1 -2 0 0c-1 0 0 0 0 0v0zM177 283v0c0 -1 -2 -1 0 0v0v0zM159 299c0 2 2 2 2 0h-2c0 0 4 0 7 2v0c0 -2 -2 -3 -3 -3c-2 -2 -3 -3 -6 -3c-3 -1 -5 -2 -6 -2h-3v0c1 0 2 2 2 2c-2 -1 -2 -2 -3 -2l3 2v0h-3
h1v0c0 1 1 1 1 1v0v0c-1 0 0 0 0 0h2v0v0c0 1 2 1 2 1h1v0h1c2 1 2 2 3 2v0h1c-1 0 -1 0 0 0zM110 122v0c0 -1 0 -1 -1 3c0 0 1 -2 1 -3c1 -1 2 -4 3 -7v0v-1v-2v-3v-1h-2v0c-9 17 -16 38 -17 58c1 0 0 -2 1 -3c0 -1 1 -4 1 -4v-1v-6v-2v-1v0v-1v0v1v0c0 2 -1 3 -1 3
c0 1 -1 1 0 1v0v-1v0v-1v-2h1c2 0 3 -3 3 -3c1 -1 2 -1 2 -1v-1v0h1s0 -2 1 -2h2l1 -1c0 -1 2 -4 3 -4h1c1 -1 1 -3 1 -4c2 -6 0 -8 -1 -11zM154 306v0s-2 0 -2 -1zM146 299c1 0 1 1 3 1c-1 0 -3 -1 -4 -1c-1 -1 -3 -3 -4 -3c0 0 1 0 1 1c1 0 1 2 4 2zM155 309l-1 -2
c1 0 1 1 1 2v0zM151 305v0c-1 0 -2 -2 -2 -2c-1 0 1 1 2 2c-1 -1 0 0 0 0zM148 302c0 0 1 0 1 1s-1 1 -1 0c-1 0 -1 -1 -1 -1c0 -1 -1 -1 1 0zM159 310v0c-1 0 -1 0 0 0h-1h-1v0h2zM224 248h-3c-1 0 -1 1 -4 0v0h1c1 0 3 -2 4 -2h1v0l1 2v0v0zM209 259v-2c-1 0 -1 2 -1 2v0
h1v0zM206 252c0 2 0 2 2 2l1 1h1v-3c0 -2 -3 -3 -3 -3c-1 0 -1 2 -1 2v1zM193 251c-2 0 -2 0 0 0c-2 0 -2 -1 0 0c-2 -1 0 0 0 0v0zM215 287v0h-2v0h2v0v0zM216 287c0 0 -1 0 0 0c-1 0 0 0 0 0c1 0 1 2 3 2c0 0 0 1 -1 1c-2 0 -3 -2 -2 -3c-1 1 0 0 0 0v0v0zM234 293v0
s1 0 0 0c1 0 1 2 0 0c1 2 1 1 1 1v0l-1 -1c1 0 1 0 0 0c1 0 1 0 0 0zM254 241c-1 0 -4 1 -6 0h5c0 0 0 -2 1 0zM276 241v0c0 1 1 0 1 1c-1 0 -4 -1 -6 -1v0v0c3 -2 5 -2 5 0zM330 176l1 2c-1 0 -1 0 -1 -2v0zM307 312v0v0c1 -1 3 -2 4 -2v0c-1 1 -1 2 -4 2c1 0 0 0 0 0z
M329 309c0 0 0 -2 2 -2h2c-1 0 -6 2 -4 2z" />
    <glyph glyph-name="uniF108" unicode="&#xf108;" horiz-adv-x="507" 
d="M168 -36l-3 -2l-1 2l-164 172l62 60l103 -108l279 266l63 -67z" />
    <glyph glyph-name="uniF10D" unicode="&#xf10d;" horiz-adv-x="420" 
d="M308 -5c-35 -19 -71 -26 -114 -26c-105 0 -194 77 -194 200c0 132 92 246 234 246c111 0 186 -78 186 -185c0 -96 -54 -153 -114 -153c-26 0 -49 18 -47 57h-3c-22 -38 -52 -57 -90 -57c-37 0 -69 30 -69 81c0 79 62 152 151 152c28 0 52 -6 69 -14l-22 -116
c-10 -49 -2 -70 19 -71c33 -1 69 43 69 117c0 93 -56 159 -155 159c-104 0 -192 -82 -192 -212c0 -107 70 -173 165 -173c36 0 71 7 97 22zM273 271c-6 2 -17 5 -32 5c-56 0 -102 -53 -102 -115c0 -28 14 -49 42 -49c37 0 71 47 78 87z" />
    <glyph glyph-name="uniF110" unicode="&#xf110;" horiz-adv-x="362" 
d="M324 228c24 -30 38 -69 38 -111c0 -100 -81 -181 -181 -181s-181 81 -181 181c0 40 13 77 36 107v84c0 79 61 140 138 140h10c78 0 140 -61 140 -140v-80zM59 308v0v-54c11 8 24 14 37 20c26 14 56 22 88 22c42 0 80 -14 110 -37c3 -2 5 -4 7 -6v55
c0 66 -51 117 -117 117h-10c-65 0 -115 -50 -115 -117zM181 -41c87 0 158 71 158 158c0 50 -23 95 -59 123c-28 20 -61 30 -97 30c-23 0 -52 -5 -77 -16c-49 -27 -83 -79 -83 -137c0 -87 71 -158 158 -158zM181 176c21 0 37 -16 37 -37c0 -13 -6 -24 -17 -31v-50
c0 -12 -9 -21 -20 -21s-21 10 -21 21v50c-10 7 -16 18 -16 31c0 21 16 37 37 37z" />
    <glyph glyph-name="uniF10F" unicode="&#xf10f;" horiz-adv-x="470" 
d="M470 -14l-13 -17v-1l-33 -5l-1 8l15 2l-139 93l-65 -65c-3 -3 -8 -5 -13 -5s-9 2 -12 5c0 0 -29 21 -32 32c-2 6 5 24 5 24c2 10 1 20 -5 28l-92 134c-7 10 -18 16 -30 16h-1s-14 -2 -23 -2c-3 0 -5 1 -7 1c-8 2 -25 16 -24 24c10 62 73 138 166 167h2c8 0 21 -16 23 -24
c2 -7 -1 -30 -1 -30c0 -12 6 -24 16 -31l134 -91c6 -4 13 -7 20 -7c2 0 6 1 8 1c0 0 15 6 22 6c1 0 1 -1 2 -1c11 -3 32 -31 32 -31c7 -7 7 -19 0 -26l-65 -65l96 -146l8 11zM104 233l92 -134c4 -5 7 -12 9 -18l146 138c-9 1 -17 5 -24 10l-135 92c-8 5 -14 11 -18 19
c-47 -24 -75 -72 -85 -91c6 -4 11 -10 15 -16zM216 26c17 15 63 56 124 115l2 2l61 61c-5 6 -10 13 -14 17l-187 -180l-1 -2c3 -3 9 -8 15 -13zM315 84l77 -51l-51 76c-9 -9 -18 -17 -26 -25z" />
    <glyph glyph-name="uniF103" unicode="&#xf103;" 
d="M262 325c55 0 91 -41 90 -88c0 -59 -32 -105 -78 -105c-15 0 -30 9 -35 19c0 0 -8 -34 -10 -41c-6 -25 -24 -49 -25 -51c-1 -1 -3 0 -3 2c-1 3 -5 33 0 58c3 12 18 83 18 83s-4 10 -4 24c0 23 13 40 28 40c13 0 19 -10 19 -22c0 -14 -8 -35 -12 -54c-4 -16 7 -30 22 -30
c28 0 46 37 46 81c0 33 -21 58 -60 58c-43 0 -71 -34 -71 -73c0 -13 4 -23 10 -30c3 -3 3 -4 2 -8c-1 -3 -3 -10 -4 -13c-1 -4 -4 -5 -7 -4c-20 8 -29 32 -29 59c0 43 34 95 103 95zM256 448c141 0 256 -115 256 -256s-115 -256 -256 -256s-256 115 -256 256
s115 256 256 256zM256 -33c125 0 225 100 225 225s-100 225 -225 225s-225 -100 -225 -225s100 -225 225 -225z" />
    <glyph glyph-name="uniF112" unicode="&#xf112;" horiz-adv-x="486" 
d="M244 375c170 0 242 -185 242 -185s-66 -177 -245 -181c-177 0 -241 182 -241 182s60 183 243 184h1v-1v0v1zM241 40c132 3 195 115 211 150c-17 37 -82 154 -208 154h-1c-137 -1 -195 -118 -210 -153c15 -35 75 -151 208 -151zM245 298c59 -1 105 -49 104 -107
s-48 -106 -107 -105c-58 1 -105 49 -104 107s48 106 107 105zM244 143c27 0 49 22 49 49s-22 49 -49 49s-50 -22 -50 -49s23 -49 50 -49z" />
    <glyph glyph-name="uniF11C" unicode="&#xf11c;" horiz-adv-x="503" 
d="M252 443c139 0 251 -113 251 -252s-112 -252 -251 -252s-252 113 -252 252s113 252 252 252zM252 -26c120 0 217 97 217 217s-97 217 -217 217s-217 -97 -217 -217s97 -217 217 -217zM379 303c23 0 42 -18 42 -41v-137c0 -23 -19 -42 -42 -42h-253c-23 0 -41 19 -41 42
v136c0 23 18 42 41 42h253zM106 248v-110l73 55zM379 104c12 0 21 10 21 21l-83 62l-46 -35c-6 -4 -11 -6 -18 -6s-13 2 -19 6l-46 35l-83 -62c0 -11 9 -21 21 -21h253zM399 138v111l-73 -56zM265 161l135 100c0 11 -9 21 -21 21h-252c-12 0 -21 -9 -21 -21l82 -61l9 -7
l43 -32c4 -3 8 -4 13 -4s8 1 12 4z" />
    <glyph glyph-name="uniF120" unicode="&#xf120;" 
d="M448 361c35 0 64 -29 64 -64v-208c0 -35 -29 -64 -64 -64h-384c-35 0 -64 29 -64 64v208c0 35 29 64 64 64h384zM32 277v-168l112 84zM448 57c18 0 32 14 32 32l-125 94l-70 -52c-8 -6 -19 -10 -29 -10s-21 4 -29 10l-70 52l-125 -94c0 -18 14 -32 32 -32h384zM480 109
v168l-112 -84zM275 144l205 153c0 18 -14 32 -32 32h-384c-18 0 -32 -14 -32 -32l126 -94l13 -10l66 -49c6 -4 12 -7 19 -7s13 3 19 7z" />
    <glyph glyph-name="uniF111" unicode="&#xf111;" horiz-adv-x="433" 
d="M433 32c2 -18 -4 -36 -16 -50s-28 -23 -46 -25h-6c-35 0 -65 28 -68 63c0 5 -1 10 0 15l-179 118c-12 -13 -29 -20 -47 -21h-3c-37 0 -67 29 -68 66c-1 18 6 37 18 50c13 14 30 20 48 21h3c20 0 38 -8 50 -22l176 115c-1 4 -1 7 -1 11c-1 36 28 66 66 67h2
c37 0 67 -28 68 -63c1 -18 -6 -34 -19 -47c-12 -13 -29 -19 -47 -20h-2c-25 0 -47 12 -59 31l-172 -112c3 -8 6 -17 6 -26c0 -11 -2 -22 -7 -32l173 -114c2 5 6 9 9 13c12 14 29 23 47 25c38 3 71 -26 74 -63zM361 419c-26 -1 -47 -22 -46 -46s22 -41 47 -41h1
c13 0 24 5 33 14c8 8 13 19 13 31c-1 24 -22 42 -47 42h-1zM67 247c-12 0 -25 -5 -33 -14c9 9 21 14 33 14zM70 153c12 0 24 6 32 15c-9 -9 -20 -15 -32 -15zM400 -4c8 10 12 22 11 34c-2 24 -22 43 -46 43h-4c-12 -1 -24 -7 -32 -17s-12 -22 -11 -34c2 -24 23 -43 47 -43h4
c12 1 23 7 31 17z" />
    <glyph glyph-name="uniF118" unicode="&#xf118;" horiz-adv-x="435" 
d="M223 224c156 4 196 -66 196 -66c53 -96 -40 -214 -40 -214c39 78 26 113 -1 140c-58 57 -155 32 -155 32v-98l-177 152l177 152v-98zM0 192v225c0 17 12 29 29 29h250c20 0 36 -7 50 -21l85 -85c14 -14 21 -31 21 -51v-323c0 -17 -11 -28 -28 -28h-378
c-17 0 -29 12 -29 29v225zM399 265h-4h-113c-3 0 -5 0 -8 1c-12 3 -20 13 -20 26v114v3h-218v-435h363v291zM290 407v-106h107c-1 5 -4 9 -7 12c-29 29 -59 58 -88 87c-3 3 -7 6 -12 7z" />
    <glyph glyph-name="uniF116" unicode="&#xf116;" horiz-adv-x="496" 
d="M248 397c-114 0 -206 -92 -206 -206s92 -206 206 -206s206 92 206 206s-92 206 -206 206zM248 439v0c137 0 248 -111 248 -248s-111 -248 -248 -248s-248 111 -248 248s111 248 248 248zM203 289l145 -91l-145 -114v205z" />
    <glyph glyph-name="uniF10B" unicode="&#xf10b;" horiz-adv-x="464" 
d="M238 170c-22 -14 -45 -27 -67 -41c-4 -2 -6 -2 -9 1c-14 11 -28 23 -43 34c-14 -12 -29 -23 -43 -35c-3 -2 -5 -2 -8 0c-21 13 -43 26 -64 39c-1 1 -2 2 -4 3c17 13 33 26 50 39c-16 13 -33 26 -50 39l72 48c15 -14 31 -27 47 -41c-23 -15 -46 -31 -69 -46l3 -3
c21 -14 42 -27 63 -41c1 -1 4 -2 5 -1l69 45c0 0 1 0 2 1c-24 15 -48 30 -73 45c16 14 33 28 49 42c22 -15 44 -30 66 -44c1 -1 3 -1 4 -2v-1c-15 -13 -30 -27 -46 -40c11 -10 21 -19 32 -28c4 -4 9 -8 14 -12v-1zM192 127v-16c0 -1 -1 -3 -2 -4c-22 -16 -46 -30 -68 -46
c-2 -1 -4 -2 -6 0c-22 16 -45 30 -67 46c-1 1 -3 4 -3 6v14c8 -5 17 -9 24 -14c2 -1 4 -2 6 0c13 11 26 20 39 31c3 2 5 4 8 1c13 -11 27 -21 40 -32c2 -2 4 -2 6 0c7 5 15 9 23 14zM429 275c-5 -6 -9 -10 -14 -15l-16 -16c-63 25 -101 15 -118 -33c-14 -39 7 -80 47 -93
c38 -12 72 5 83 43h-64v43h114c13 -55 -16 -111 -68 -130c-57 -22 -121 1 -150 54c-30 54 -16 119 33 156c46 35 112 31 153 -9z" />
    <glyph glyph-name="uniF11D" unicode="&#xf11d;" horiz-adv-x="503" 
d="M252 443c139 0 251 -113 251 -252s-112 -252 -251 -252s-252 113 -252 252s113 252 252 252zM252 -26c120 0 217 97 217 217s-97 217 -217 217s-217 -97 -217 -217s97 -217 217 -217zM278 179c26 26 51 57 40 69c-17 17 -31 28 -1 66s50 9 67 -8c19 -19 1 -91 -70 -162
s-143 -89 -162 -70c-17 17 -46 38 -8 68s49 15 66 -2c12 -12 42 13 68 39z" />
    <glyph glyph-name="uniF107" unicode="&#xf107;" 
d="M274 250l-1 -19h38l-4 -39h-34v-113h-50v113h-25v39h25v23c0 32 14 51 54 51h34v-39h-20c-15 0 -17 -6 -17 -16zM256 448c141 0 256 -115 256 -256s-115 -256 -256 -256s-256 115 -256 256s115 256 256 256zM256 -33c125 0 225 100 225 225s-100 225 -225 225
s-225 -100 -225 -225s100 -225 225 -225z" />
    <glyph glyph-name="uniF11F" unicode="&#xf11f;" horiz-adv-x="514" 
d="M514 173c-48 -30 -96 -59 -144 -89c-8 -5 -13 -4 -20 2c-31 25 -62 48 -93 73c-31 -25 -62 -49 -93 -74c-6 -5 -11 -5 -17 -1l-138 84c-3 2 -5 4 -9 6c36 28 71 56 107 84c-36 28 -70 56 -107 85l156 105c33 -30 67 -59 101 -90c-50 -33 -99 -66 -149 -99c3 -2 4 -4 6 -5
c45 -30 91 -60 136 -90c3 -2 9 -3 12 -1c50 32 99 65 149 97c1 0 1 1 3 2c-52 32 -104 64 -157 96c36 31 70 60 105 90c48 -32 95 -63 142 -94c3 -2 7 -2 10 -4v-3c-33 -28 -66 -56 -100 -85c24 -21 47 -42 70 -62l30 -24v-3zM415 80c0 -13 0 -24 -1 -35c0 -3 -3 -5 -5 -7
c-48 -33 -98 -66 -146 -100c-5 -3 -7 -3 -12 0c-48 33 -97 66 -145 100c-3 2 -6 7 -6 11c-1 10 0 19 0 31c18 -11 34 -21 50 -31c5 -3 9 -3 14 1c28 23 56 45 84 68c7 5 11 6 18 0c28 -23 57 -45 86 -68c5 -4 8 -4 13 -1c16 10 32 20 50 31z" />
    <glyph glyph-name="uniF10E" unicode="&#xf10e;" horiz-adv-x="474" 
d="M316 383v0v-63h-253v63h64v31c0 17 14 32 31 32h63c17 0 32 -15 32 -32v-31h63zM221 383v0v31v0h-63v0v-31h63zM379 288h95v-253l-95 -95h-221v95h-142c-9 0 -16 7 -16 16v316c0 9 7 16 16 16h31v-32h-15v-284h126v221h190v63h-16v32h32c9 0 15 -7 15 -16v-79zM379 -15
l50 50h-50v-50zM443 67v189h-253v-284h158v95h95z" />
    <glyph glyph-name="uniF101" unicode="&#xf101;" 
d="M256 448c141 0 256 -115 256 -256s-115 -256 -256 -256s-256 115 -256 256s115 256 256 256zM256 -33c125 0 224 100 224 225s-100 225 -225 225s-225 -100 -225 -225c0 -61 23 -116 62 -156c2 -4 9 -12 34 -29v1c36 -25 78 -40 124 -41v0h2h4zM294 214c3 0 5 -1 6 -5
c9 -56 -29 -110 -84 -120c-56 -10 -109 23 -122 78c-14 57 24 117 82 127c33 5 61 -1 87 -22l3 -3c-10 -10 -19 -21 -29 -31c-41 31 -84 7 -96 -22c-13 -33 2 -71 36 -82c35 -11 68 10 76 36h-58v39v5h5h94zM421 209v-26h-36v-36h-27v36h-36v26h36v37h27v-37h36z" />
    <glyph glyph-name="uniF106" unicode="&#xf106;" 
d="M349 276c13 -2 25 -12 27 -25c4 -19 4 -40 4 -59s0 -41 -4 -59c-3 -13 -14 -24 -27 -25c-31 -3 -62 -3 -93 -3s-62 0 -93 3c-12 1 -24 12 -27 25c-4 19 -4 40 -4 59s0 41 4 59c3 13 14 24 27 25c31 3 62 3 93 3s62 0 93 -3zM234 158l69 40l-69 40v-80zM256 448
c141 0 256 -115 256 -256s-115 -256 -256 -256s-256 115 -256 256s115 256 256 256zM256 -33c125 0 225 100 225 225s-100 225 -225 225s-225 -100 -225 -225s100 -225 225 -225z" />
    <glyph glyph-name="uniF11E" unicode="&#xf11e;" horiz-adv-x="513" 
d="M205 420l147 1l161 -286h-148zM170 107h343l-86 -133h-332s79 133 75 133zM167 414c2 -3 77 -131 77 -131s-166 -281 -168 -281s-76 126 -76 128s167 284 167 284z" />
    <glyph glyph-name="uniF119" unicode="&#xf119;" horiz-adv-x="511" 
d="M462 528v0h49v-97v-292c0 -27 -22 -49 -49 -49h-413c-27 0 -49 22 -49 49v292v97h48v46c0 10 9 18 19 18s18 -8 18 -18v-46h341v46c0 10 8 18 18 18s18 -8 18 -18v-46zM462 139v0v292h-413v-292h413zM98 328c-2 0 -3 1 -5 2s-3 2 -3 5v33l14 6c7 3 13 6 20 8l21 6
s13 4 18 5s10 2 13 2s6 -2 8 -4s3 -5 3 -8v-211h-42c-8 0 -12 4 -12 12v154l-24 -7c-4 -1 -6 -2 -7 -2s-3 -1 -4 -1zM258 172c-8 0 -12 4 -12 12v14c0 11 2 21 5 30s7 16 12 23s10 14 16 19s12 9 18 14c7 5 12 10 16 14s8 7 10 10s4 6 5 9s2 6 2 10c0 9 -3 15 -9 17
s-14 3 -25 3h-21h-13c-8 0 -13 3 -13 11v25c6 2 14 6 25 8s22 3 35 3c26 0 45 -5 57 -16s18 -26 18 -46c0 -9 -1 -17 -3 -24s-5 -13 -9 -18s-7 -11 -12 -15l-15 -12c-4 -3 -9 -7 -13 -10s-8 -7 -12 -11s-6 -7 -9 -11s-4 -9 -5 -14h65c8 0 12 -3 12 -11v-34h-125z" />
  </font>
</defs>
</svg>
