<?xml version="1.0" standalone="no"?>
<!DOCTYPE svg PUBLIC "-//W3C//DTD SVG 20010904//EN"
 "http://www.w3.org/TR/2001/REC-SVG-20010904/DTD/svg10.dtd">
<svg version="1.0" xmlns="http://www.w3.org/2000/svg"
 width="342.000000pt" height="342.000000pt" viewBox="0 0 342.000000 342.000000"
 preserveAspectRatio="xMidYMid meet">
<metadata>
Created by potrace 1.11, written by Peter Selinger 2001-2013
</metadata>
<g transform="translate(0.000000,342.000000) scale(0.100000,-0.100000)"
fill="#000000" stroke="none">
<path d="M1585 3093 c-242 -189 -474 -569 -541 -883 -23 -112 -23 -316 0 -420
10 -41 22 -113 27 -160 13 -123 27 -175 68 -260 l36 -75 6 230 c3 127 7 232 8
234 0 2 217 1 480 -2 529 -8 607 -15 721 -68 135 -62 200 -162 200 -304 0
-146 -65 -246 -203 -310 -120 -56 -200 -68 -462 -69 l-230 -1 -3 -224 -2 -224
-38 7 c-20 3 -137 6 -259 6 l-222 0 6 328 6 329 -41 51 c-56 71 -88 140 -123
266 -37 135 -68 196 -127 255 -62 61 -147 105 -266 136 -118 30 -134 31 -81 3
53 -27 104 -76 121 -115 13 -29 11 -38 -20 -120 -19 -48 -42 -117 -51 -153
-12 -47 -30 -81 -66 -127 -71 -90 -135 -192 -158 -251 -89 -225 -11 -438 212
-586 208 -137 460 -226 792 -278 122 -19 180 -22 450 -22 278 0 322 2 429 22
299 56 576 189 725 347 162 173 186 390 66 590 -86 142 -163 232 -426 500
-324 330 -398 422 -435 542 -23 71 -26 97 -22 176 3 77 9 103 34 157 54 115
152 211 286 280 43 23 78 43 78 45 0 6 -139 -35 -260 -78 -237 -82 -468 -195
-638 -309 -40 -27 -75 -48 -77 -46 -2 2 -11 44 -20 92 -30 177 -14 333 49 461
19 38 34 71 32 72 -1 1 -29 -19 -61 -44z"/>
<path d="M1700 1380 l0 -130 118 0 c142 0 209 16 246 61 35 41 35 97 0 138
-37 45 -104 61 -246 61 l-118 0 0 -130z"/>
</g>
</svg>
